<svg width="243" height="112" viewBox="0 0 243 112" fill="none" xmlns="http://www.w3.org/2000/svg">
<path d="M55.7441 147.888C45.7601 147.888 37.2321 146.432 30.1601 143.52C23.0881 140.469 17.3335 135.963 12.8961 130C8.4588 123.899 5.20014 116.203 3.12014 106.912C1.04014 97.6214 0.000136404 86.5974 0.000136404 73.8401C0.000136404 61.2214 1.04014 50.2668 3.12014 40.9761C5.20014 31.6854 8.4588 24.0588 12.8961 18.0961C17.3335 11.9948 23.0881 7.48809 30.1601 4.57609C37.2321 1.52542 45.7601 8.79135e-05 55.7441 8.79135e-05C65.7281 8.79135e-05 74.1868 1.52542 81.1201 4.57609C88.1921 7.48809 93.9468 11.9948 98.3841 18.0961C102.821 24.0588 106.08 31.6854 108.16 40.9761C110.24 50.2668 111.28 61.2214 111.28 73.8401C111.28 86.5974 110.24 97.6214 108.16 106.912C106.08 116.203 102.821 123.899 98.3841 130C93.9468 135.963 88.1921 140.469 81.1201 143.52C74.1868 146.432 65.7281 147.888 55.7441 147.888ZM55.7441 123.136C61.2908 123.136 65.5895 121.68 68.6401 118.768C71.8295 115.717 73.9788 111.211 75.0881 105.248C76.3361 99.1468 76.9601 91.4508 76.9601 82.1601V65.9361C76.9601 56.5068 76.3361 48.7414 75.0881 42.6401C73.9788 36.5388 71.8295 32.0321 68.6401 29.1201C65.5895 26.2081 61.2908 24.7521 55.7441 24.7521C50.1975 24.7521 45.8295 26.2081 42.6401 29.1201C39.5895 32.0321 37.4401 36.5388 36.1921 42.6401C34.9441 48.6028 34.3201 56.2988 34.3201 65.7281V81.7441C34.3201 91.1734 34.9441 98.9388 36.1921 105.04C37.4401 111.141 39.5895 115.717 42.6401 118.768C45.8295 121.68 50.1975 123.136 55.7441 123.136ZM141.856 145.392V118.56H175.968V42.2241H141.648V22.0481C147.195 21.6321 153.227 20.4534 159.744 18.5121C166.4 16.5708 172.917 14.2134 179.296 11.4401C185.813 8.52809 191.637 5.47743 196.768 2.2881H210.08V118.56H242.32V145.392H141.856Z" fill="url(#paint0_linear_697_1303)"/>
<defs>
<linearGradient id="paint0_linear_697_1303" x1="120.64" y1="-53.6079" x2="120.64" y2="206.392" gradientUnits="userSpaceOnUse">
<stop stop-color="#F6D36A"/>
<stop offset="1" stop-color="#FFFFFE"/>
</linearGradient>
</defs>
</svg>
