<svg width="241" height="101" viewBox="0 0 241 101" fill="none" xmlns="http://www.w3.org/2000/svg">
<path d="M55.7441 147.888C45.7601 147.888 37.2321 146.432 30.1601 143.52C23.0881 140.469 17.3335 135.963 12.8961 130C8.4588 123.899 5.20014 116.203 3.12014 106.912C1.04014 97.6214 0.000137091 86.5974 0.000137091 73.8401C0.000137091 61.2214 1.04014 50.2667 3.12014 40.9761C5.20014 31.6854 8.4588 24.0588 12.8961 18.0961C17.3335 11.9948 23.0881 7.48808 30.1601 4.57608C37.2321 1.52541 45.7601 7.72476e-05 55.7441 7.72476e-05C65.7281 7.72476e-05 74.1868 1.52541 81.1201 4.57608C88.1921 7.48808 93.9468 11.9948 98.3841 18.0961C102.821 24.0588 106.08 31.6854 108.16 40.9761C110.24 50.2667 111.28 61.2214 111.28 73.8401C111.28 86.5974 110.24 97.6214 108.16 106.912C106.08 116.203 102.821 123.899 98.3841 130C93.9468 135.963 88.1921 140.469 81.1201 143.52C74.1868 146.432 65.7281 147.888 55.7441 147.888ZM55.7441 123.136C61.2908 123.136 65.5895 121.68 68.6401 118.768C71.8295 115.717 73.9788 111.211 75.0881 105.248C76.3361 99.1468 76.9601 91.4508 76.9601 82.1601V65.9361C76.9601 56.5068 76.3361 48.7414 75.0881 42.6401C73.9788 36.5387 71.8295 32.0321 68.6401 29.1201C65.5895 26.2081 61.2908 24.7521 55.7441 24.7521C50.1975 24.7521 45.8295 26.2081 42.6401 29.1201C39.5895 32.0321 37.4401 36.5387 36.1921 42.6401C34.9441 48.6028 34.3201 56.2988 34.3201 65.7281V81.7441C34.3201 91.1734 34.9441 98.9388 36.1921 105.04C37.4401 111.141 39.5895 115.717 42.6401 118.768C45.8295 121.68 50.1975 123.136 55.7441 123.136ZM131.04 145.392V136.864C131.04 130.763 132.219 125.147 134.576 120.016C136.933 114.885 140.123 110.101 144.144 105.664C148.165 101.227 152.603 96.9974 157.456 92.9761C162.448 88.8161 167.44 84.8641 172.432 81.1201C178.117 76.9601 183.456 72.9388 188.448 69.0561C193.44 65.1734 197.461 61.0828 200.512 56.7841C203.701 52.4854 205.296 47.7014 205.296 42.4321C205.296 39.6587 204.603 37.0241 203.216 34.5281C201.968 31.8934 199.888 29.7441 196.976 28.0801C194.203 26.4161 190.459 25.5841 185.744 25.5841C181.029 25.5841 177.077 26.4854 173.888 28.2881C170.699 29.9521 168.272 32.3094 166.608 35.3601C164.944 38.4107 164.112 42.0161 164.112 46.1761V52.4161H132.496C132.357 51.5841 132.219 50.6828 132.08 49.7121C132.08 48.6028 132.08 47.3548 132.08 45.9681C132.08 35.9841 134.368 27.5948 138.944 20.8001C143.52 14.0054 149.968 8.87475 158.288 5.40808C166.747 1.80275 176.8 7.72476e-05 188.448 7.72476e-05C197.323 7.72476e-05 204.949 1.17875 211.328 3.53608C217.845 5.89342 223.184 9.08275 227.344 13.1041C231.504 17.1254 234.555 21.7014 236.496 26.8321C238.576 31.8241 239.616 37.0241 239.616 42.4321C239.616 48.9494 238.437 54.8428 236.08 60.1121C233.723 65.3814 230.464 70.3734 226.304 75.0881C222.144 79.6641 217.291 84.1014 211.744 88.4001C206.197 92.5601 200.235 96.7894 193.856 101.088C190.667 103.307 187.755 105.387 185.12 107.328C182.624 109.131 180.613 110.725 179.088 112.112C177.563 113.499 176.453 114.747 175.76 115.856H240.864V145.392H131.04Z" fill="url(#paint0_linear_697_1313)"/>
<defs>
<linearGradient id="paint0_linear_697_1313" x1="120.64" y1="-36.6079" x2="120.64" y2="189.392" gradientUnits="userSpaceOnUse">
<stop stop-color="#F6D36A"/>
<stop offset="1" stop-color="#FFFFFE"/>
</linearGradient>
</defs>
</svg>
