<svg width="242" height="104" viewBox="0 0 242 104" fill="none" xmlns="http://www.w3.org/2000/svg">
<path d="M55.7441 147.888C45.7601 147.888 37.2321 146.432 30.1601 143.52C23.0881 140.469 17.3335 135.963 12.8961 130C8.4588 123.899 5.20014 116.203 3.12014 106.912C1.04014 97.6214 0.000137091 86.5974 0.000137091 73.8401C0.000137091 61.2214 1.04014 50.2667 3.12014 40.9761C5.20014 31.6854 8.4588 24.0588 12.8961 18.0961C17.3335 11.9948 23.0881 7.48808 30.1601 4.57608C37.2321 1.52541 45.7601 7.72476e-05 55.7441 7.72476e-05C65.7281 7.72476e-05 74.1868 1.52541 81.1201 4.57608C88.1921 7.48808 93.9468 11.9948 98.3841 18.0961C102.821 24.0588 106.08 31.6854 108.16 40.9761C110.24 50.2667 111.28 61.2214 111.28 73.8401C111.28 86.5974 110.24 97.6214 108.16 106.912C106.08 116.203 102.821 123.899 98.3841 130C93.9468 135.963 88.1921 140.469 81.1201 143.52C74.1868 146.432 65.7281 147.888 55.7441 147.888ZM55.7441 123.136C61.2908 123.136 65.5895 121.68 68.6401 118.768C71.8295 115.717 73.9788 111.211 75.0881 105.248C76.3361 99.1468 76.9601 91.4508 76.9601 82.1601V65.9361C76.9601 56.5068 76.3361 48.7414 75.0881 42.6401C73.9788 36.5387 71.8295 32.0321 68.6401 29.1201C65.5895 26.2081 61.2908 24.7521 55.7441 24.7521C50.1975 24.7521 45.8295 26.2081 42.6401 29.1201C39.5895 32.0321 37.4401 36.5387 36.1921 42.6401C34.9441 48.6028 34.3201 56.2988 34.3201 65.7281V81.7441C34.3201 91.1734 34.9441 98.9388 36.1921 105.04C37.4401 111.141 39.5895 115.717 42.6401 118.768C45.8295 121.68 50.1975 123.136 55.7441 123.136ZM185.952 147.888C173.472 147.888 163.003 146.085 154.544 142.48C146.224 138.736 139.984 133.744 135.824 127.504C131.664 121.125 129.584 113.915 129.584 105.872V102.128H161.2V106.08C161.2 111.211 163.141 115.301 167.024 118.352C170.907 121.403 176.661 122.928 184.288 122.928C191.915 122.928 197.6 121.195 201.344 117.728C205.088 114.123 206.96 109.061 206.96 102.544C206.96 97.9681 206.059 94.3628 204.256 91.7281C202.453 89.0934 200.027 87.2214 196.976 86.1121C194.064 84.8641 190.805 84.2401 187.2 84.2401H173.68V60.9441H185.744C189.211 60.9441 192.261 60.3201 194.896 59.0721C197.669 57.6854 199.819 55.6748 201.344 53.0401C203.008 50.4054 203.84 47.0774 203.84 43.0561C203.84 39.3121 203.077 36.1227 201.552 33.4881C200.027 30.7147 197.739 28.6348 194.688 27.2481C191.776 25.7227 188.309 24.9601 184.288 24.9601C180.544 24.9601 177.077 25.6534 173.888 27.0401C170.837 28.4268 168.411 30.3681 166.608 32.8641C164.944 35.3601 164.112 38.2721 164.112 41.6001V44.3041H133.536V39.1041C133.536 31.6161 135.616 24.9601 139.776 19.1361C144.075 13.1734 150.176 8.52808 158.08 5.20008C165.984 1.73341 175.344 7.72476e-05 186.16 7.72476e-05C196.837 7.72476e-05 206.059 1.66408 213.824 4.99209C221.589 8.18142 227.552 12.7574 231.712 18.7201C235.872 24.5441 237.952 31.2694 237.952 38.8961C237.952 44.0268 236.981 48.7414 235.04 53.0401C233.237 57.2001 230.672 60.7361 227.344 63.6481C224.155 66.5601 220.411 68.9174 216.112 70.7201V71.5521C223.877 73.9094 230.048 78.1388 234.624 84.2401C239.2 90.2028 241.488 97.6908 241.488 106.704C241.349 114.747 239.131 121.888 234.832 128.128C230.533 134.229 224.293 139.083 216.112 142.688C207.931 146.155 197.877 147.888 185.952 147.888Z" fill="url(#paint0_linear_697_1308)"/>
<defs>
<linearGradient id="paint0_linear_697_1308" x1="120.64" y1="-36.6079" x2="120.64" y2="189.392" gradientUnits="userSpaceOnUse">
<stop stop-color="#F6D36A"/>
<stop offset="1" stop-color="#FFFFFE"/>
</linearGradient>
</defs>
</svg>
