<svg width="245" height="101" viewBox="0 0 245 101" fill="none" xmlns="http://www.w3.org/2000/svg">
<path d="M55.7441 147.888C45.7601 147.888 37.2321 146.432 30.1601 143.52C23.0881 140.469 17.3335 135.963 12.8961 130C8.4588 123.899 5.20014 116.203 3.12014 106.912C1.04014 97.6214 0.000137091 86.5974 0.000137091 73.8401C0.000137091 61.2214 1.04014 50.2667 3.12014 40.9761C5.20014 31.6854 8.4588 24.0588 12.8961 18.0961C17.3335 11.9948 23.0881 7.48808 30.1601 4.57608C37.2321 1.52541 45.7601 7.72476e-05 55.7441 7.72476e-05C65.7281 7.72476e-05 74.1868 1.52541 81.1201 4.57608C88.1921 7.48808 93.9468 11.9948 98.3841 18.0961C102.821 24.0588 106.08 31.6854 108.16 40.9761C110.24 50.2667 111.28 61.2214 111.28 73.8401C111.28 86.5974 110.24 97.6214 108.16 106.912C106.08 116.203 102.821 123.899 98.3841 130C93.9468 135.963 88.1921 140.469 81.1201 143.52C74.1868 146.432 65.7281 147.888 55.7441 147.888ZM55.7441 123.136C61.2908 123.136 65.5895 121.68 68.6401 118.768C71.8295 115.717 73.9788 111.211 75.0881 105.248C76.3361 99.1468 76.9601 91.4508 76.9601 82.1601V65.9361C76.9601 56.5068 76.3361 48.7414 75.0881 42.6401C73.9788 36.5387 71.8295 32.0321 68.6401 29.1201C65.5895 26.2081 61.2908 24.7521 55.7441 24.7521C50.1975 24.7521 45.8295 26.2081 42.6401 29.1201C39.5895 32.0321 37.4401 36.5387 36.1921 42.6401C34.9441 48.6028 34.3201 56.2988 34.3201 65.7281V81.7441C34.3201 91.1734 34.9441 98.9388 36.1921 105.04C37.4401 111.141 39.5895 115.717 42.6401 118.768C45.8295 121.68 50.1975 123.136 55.7441 123.136ZM192.816 145.392V115.024H126.256V88.6081C131.248 80.8428 136.101 72.3148 140.816 63.0241C145.669 53.5948 150.245 43.5414 154.544 32.8641C158.843 22.1868 162.448 11.2321 165.36 7.72476e-05H199.68C198.571 5.82408 196.699 12.1334 194.064 18.9281C191.429 25.5841 188.309 32.3788 184.704 39.3121C181.237 46.1067 177.493 52.6934 173.472 59.0721C169.589 65.3121 165.776 71.0668 162.032 76.3361C158.427 81.4668 155.099 85.6268 152.048 88.8161H192.816V56.1601C194.341 53.6641 195.936 50.7521 197.6 47.4241C199.403 44.0961 201.136 40.6294 202.8 37.0241C204.603 33.4187 206.128 29.9521 207.376 26.6241C208.763 23.1574 209.872 19.9681 210.704 17.0561H225.888V88.8161H244.816V115.024H225.888V145.392H192.816Z" fill="url(#paint0_linear_697_1318)"/>
<defs>
<linearGradient id="paint0_linear_697_1318" x1="121.14" y1="-36.6079" x2="121.14" y2="189.392" gradientUnits="userSpaceOnUse">
<stop stop-color="#F6D36A"/>
<stop offset="1" stop-color="#FFFFFE"/>
</linearGradient>
</defs>
</svg>
