<svg width="203" height="96" viewBox="0 0 203 96" fill="none" xmlns="http://www.w3.org/2000/svg">
<rect width="199.226" height="88.7668" transform="translate(0 6.95289) rotate(-2)" fill="#FFFEF1"/>
<rect width="45.5062" height="40" transform="translate(154.043 26.7911) rotate(-2)" fill="#FFFEF1"/>
<path d="M158.644 61.6517L168.293 31.6478L175.805 31.3854L187.524 60.6432L180.93 60.8735L178.54 54.6475L167.147 55.0454L165.196 61.4229L158.644 61.6517ZM168.759 49.766L176.605 49.492L172.283 38.194L168.759 49.766ZM188.732 60.601L187.697 30.9702L194.041 30.7486L195.076 60.3795L188.732 60.601Z" fill="url(#paint0_linear_697_945)"/>
<path d="M6.71762 47.129L22.368 46.2512C26.816 46.0017 29.9477 48.8007 30.1972 53.2487L30.2711 54.5667C30.5206 59.0147 27.7215 62.1463 23.2735 62.3958L12.8948 62.9779L13.2829 69.897L8.01119 70.1927L6.71762 47.129ZM22.0377 51.558L12.285 52.105L12.5992 57.7062L22.3518 57.1592C23.9992 57.0668 25.0567 55.8837 24.9606 54.1704C24.8682 52.523 23.6851 51.4656 22.0377 51.558ZM32.6515 45.6744L48.3019 44.7966C52.7499 44.5472 55.8815 47.3462 56.131 51.7942L56.2049 53.1121C56.4378 57.2636 54.0286 60.2742 50.0951 60.8584L57.0088 67.4446L49.7602 67.8512L42.8813 61.2961L38.8287 61.5234L39.2168 68.4425L33.945 68.7382L32.6515 45.6744ZM38.2189 50.6505L38.533 56.2517L48.2857 55.7047C49.9331 55.6123 50.9905 54.4292 50.8944 52.7159C50.802 51.0685 49.6189 50.0111 47.9715 50.1035L38.2189 50.6505ZM67.5835 61.5632L74.3049 61.1862C76.0512 61.0883 77.1397 59.8704 77.0417 58.1242L76.6647 51.4027C76.5668 49.6565 75.3489 48.568 73.6027 48.6659L66.8812 49.0429C65.135 49.1408 64.0465 50.3587 64.1444 52.1049L64.5214 58.8264C64.6193 60.5726 65.8372 61.6611 67.5835 61.5632ZM59.2922 59.8799L58.8302 51.6428C58.5807 47.1948 61.3797 44.0631 65.8278 43.8137L74.0648 43.3517C78.5128 43.1022 81.6445 45.9012 81.8939 50.3492L82.3559 58.5863C82.6054 63.0343 79.8064 66.166 75.3584 66.4154L67.1213 66.8774C62.6733 67.1269 59.5417 64.3279 59.2922 59.8799ZM93.3448 65.4066C88.8968 65.6561 85.7651 62.8571 85.5156 58.4091L85.0536 50.172C84.8042 45.724 87.6032 42.5923 92.0512 42.3429L105.066 41.6129L105.361 46.8846L93.1047 47.5721C91.3584 47.67 90.2699 48.8879 90.3678 50.6342L90.7448 57.3556C90.8428 59.1018 92.0606 60.1904 93.8069 60.0924L106.064 59.405L106.359 64.6767L93.3448 65.4066ZM109.43 64.5045L108.136 41.4407L128.564 40.295L128.86 45.5667L113.704 46.4167L113.916 50.2058L124.394 49.6181L124.671 54.5604L114.193 55.148L114.406 58.9371L129.562 58.087L129.858 63.3587L109.43 64.5045ZM132.918 63.1871L131.625 40.1233L136.897 39.8276L137.894 57.6197L144.221 57.2649C147.878 57.0597 150.256 54.0839 150.03 50.0642L149.417 39.1254L154.689 38.8297L155.345 50.5264C155.727 57.3466 151.205 62.1614 144.945 62.5126L132.918 63.1871Z" fill="black"/>
<defs>
<linearGradient id="paint0_linear_697_945" x1="156.992" y1="46.7003" x2="197.968" y2="45.2694" gradientUnits="userSpaceOnUse">
<stop stop-color="#FFC727"/>
<stop offset="0.5" stop-color="#F6D36A"/>
<stop offset="1" stop-color="#FFE600"/>
</linearGradient>
</defs>
</svg>
