<svg width="50" height="50" viewBox="0 0 50 50" fill="none" xmlns="http://www.w3.org/2000/svg">
<g clip-path="url(#clip0_697_1397)">
<path d="M10.9875 19.7915C13.1507 19.7915 15.2654 20.433 17.0641 21.6348C18.8627 22.8366 20.2646 24.5448 21.0924 26.5434C21.9203 28.542 22.1369 30.7411 21.7148 32.8628C21.2928 34.9845 20.2511 36.9333 18.7215 38.463C17.1918 39.9926 15.243 41.0343 13.1213 41.4563C10.9996 41.8784 8.80047 41.6618 6.8019 40.8339C4.80333 40.0061 3.09513 38.6042 1.8933 36.8056C0.691473 35.0069 0.05 32.8922 0.05 30.729L0 29.1665C0 23.3649 2.30468 17.8009 6.40704 13.6985C10.5094 9.59618 16.0734 7.2915 21.875 7.2915V13.5415C19.8222 13.536 17.7887 13.9375 15.892 14.7227C13.9953 15.508 12.2731 16.6615 10.825 18.1165C10.2622 18.6783 9.74296 19.2821 9.27188 19.9228C9.83125 19.8353 10.4031 19.7884 10.9844 19.7884L10.9875 19.7915ZM39.1125 19.7915C41.2757 19.7915 43.3904 20.433 45.1891 21.6348C46.9877 22.8366 48.3896 24.5448 49.2174 26.5434C50.0453 28.542 50.2619 30.7411 49.8398 32.8628C49.4178 34.9845 48.3761 36.9333 46.8465 38.463C45.3168 39.9926 43.368 41.0343 41.2463 41.4563C39.1246 41.8784 36.9255 41.6618 34.9269 40.8339C32.9283 40.0061 31.2201 38.6042 30.0183 36.8056C28.8165 35.0069 28.175 32.8922 28.175 30.729L28.125 29.1665C28.125 23.3649 30.4297 17.8009 34.532 13.6985C38.6344 9.59618 44.1984 7.2915 50 7.2915V13.5415C47.9472 13.536 45.9137 13.9375 44.017 14.7227C42.1203 15.508 40.3981 16.6615 38.95 18.1165C38.3872 18.6783 37.868 19.2821 37.3969 19.9228C37.9563 19.8353 38.5281 19.7884 39.1125 19.7884V19.7915Z" fill="#F6D36A"/>
</g>
<defs>
<clipPath id="clip0_697_1397">
<rect width="50" height="50" fill="white"/>
</clipPath>
</defs>
</svg>
