<svg width="33" height="33" viewBox="0 0 33 33" fill="none" xmlns="http://www.w3.org/2000/svg">
<g clip-path="url(#clip0_697_1347)">
<path d="M24.3189 6.85083H8.09832C7.40922 6.85083 6.85059 7.40946 6.85059 8.09857V24.3191C6.85059 25.0082 7.40922 25.5669 8.09832 25.5669H24.3189C25.008 25.5669 25.5666 25.0082 25.5666 24.3191V8.09857C25.5666 7.40946 25.008 6.85083 24.3189 6.85083Z" stroke="#A0A3BD" stroke-width="1.70146" stroke-linecap="round" stroke-linejoin="round"/>
<path d="M17.0405 19.3281H21.8235" stroke="#A0A3BD" stroke-width="1.70146" stroke-linecap="round" stroke-linejoin="round"/>
<path d="M10.5938 19.3281H12.8813" stroke="#A0A3BD" stroke-width="1.70146" stroke-linecap="round" stroke-linejoin="round"/>
<path fill-rule="evenodd" clip-rule="evenodd" d="M17.0405 19.3281C17.0405 19.7394 16.9185 20.1415 16.69 20.4834C16.4615 20.8254 16.1367 21.092 15.7567 21.2494C15.3767 21.4068 14.9586 21.4479 14.5552 21.3677C14.1518 21.2875 13.7813 21.0894 13.4904 20.7986C13.1996 20.5077 13.0015 20.1372 12.9213 19.7338C12.8411 19.3304 12.8822 18.9123 13.0396 18.5323C13.197 18.1523 13.4636 17.8275 13.8056 17.599C14.1475 17.3705 14.5496 17.2485 14.9609 17.2485C15.5124 17.2485 16.0414 17.4676 16.4314 17.8576C16.8214 18.2476 17.0405 18.7766 17.0405 19.3281V19.3281Z" stroke="#A0A3BD" stroke-width="1.70146" stroke-linecap="round" stroke-linejoin="round"/>
<path d="M17.8722 13.0896H10.5938" stroke="#A0A3BD" stroke-width="1.70146" stroke-linecap="round" stroke-linejoin="round"/>
<path fill-rule="evenodd" clip-rule="evenodd" d="M22.0312 13.0896C22.0312 12.6783 21.9092 12.2762 21.6807 11.9342C21.4522 11.5922 21.1274 11.3257 20.7474 11.1683C20.3675 11.0109 19.9493 10.9697 19.5459 11.05C19.1425 11.1302 18.772 11.3283 18.4812 11.6191C18.1903 11.9099 17.9923 12.2805 17.912 12.6839C17.8318 13.0873 17.873 13.5054 18.0304 13.8854C18.1878 14.2654 18.4543 14.5902 18.7963 14.8187C19.1383 15.0472 19.5403 15.1691 19.9516 15.1691C20.5032 15.1691 21.0321 14.95 21.4221 14.56C21.8121 14.17 22.0312 13.6411 22.0312 13.0896Z" stroke="#A0A3BD" stroke-width="1.70146" stroke-linecap="round" stroke-linejoin="round"/>
</g>
<defs>
<clipPath id="clip0_697_1347">
<rect width="20.4175" height="20.4175" fill="white" transform="translate(6 6)"/>
</clipPath>
</defs>
</svg>
