<svg width="33" height="33" viewBox="0 0 33 33" fill="none" xmlns="http://www.w3.org/2000/svg">
<path d="M24.4299 13.9015L16.2126 7.70142L7.98769 13.9015C7.81765 14.0584 7.71541 14.2753 7.70264 14.5063V23.9743C7.70323 24.1702 7.78134 24.3579 7.91988 24.4965C8.05843 24.635 8.24617 24.7131 8.44211 24.7137H13.3734V20.7465C13.3734 19.9945 13.6721 19.2733 14.2039 18.7415C14.7356 18.2098 15.4568 17.9111 16.2088 17.9111C16.9608 17.9111 17.682 18.2098 18.2137 18.7415C18.7455 19.2733 19.0442 19.9945 19.0442 20.7465V24.716H23.9747C24.1707 24.7154 24.3586 24.6373 24.4972 24.4988C24.6359 24.3603 24.7142 24.1725 24.715 23.9765V14.5063C24.7019 14.2754 24.5997 14.0586 24.4299 13.9015Z" stroke="#A0A3BD" stroke-width="1.70146" stroke-linecap="round" stroke-linejoin="round"/>
</svg>
