<svg width="21" height="21" viewBox="0 0 21 21" fill="none" xmlns="http://www.w3.org/2000/svg">
<path d="M10.209 18.716C14.9074 18.716 18.7162 14.9072 18.7162 10.2087C18.7162 5.51026 14.9074 1.70142 10.209 1.70142C5.51051 1.70142 1.70166 5.51026 1.70166 10.2087C1.70166 14.9072 5.51051 18.716 10.209 18.716Z" stroke="#F6D36A" stroke-width="1.70146" stroke-linecap="round" stroke-linejoin="round"/>
<path d="M10.209 14.4624V10.2087" stroke="#F6D36A" stroke-width="1.70146" stroke-linecap="round" stroke-linejoin="round"/>
<path d="M10.2091 6.23584C10.1144 6.23584 10.0219 6.26391 9.94318 6.3165C9.86447 6.36909 9.80313 6.44384 9.7669 6.5313C9.73068 6.61875 9.7212 6.71499 9.73967 6.80783C9.75813 6.90067 9.80372 6.98595 9.87065 7.05289C9.93759 7.11982 10.0229 7.1654 10.1157 7.18387C10.2086 7.20234 10.3048 7.19286 10.3922 7.15664C10.4797 7.12041 10.5544 7.05907 10.607 6.98036C10.6596 6.90165 10.6877 6.80912 10.6877 6.71446C10.6879 6.65156 10.6756 6.58924 10.6516 6.5311C10.6276 6.47295 10.5924 6.42013 10.5479 6.37565C10.5034 6.33117 10.4506 6.29592 10.3924 6.27193C10.3343 6.24794 10.272 6.23567 10.2091 6.23584Z" fill="#F6D36A" stroke="#F6D36A" stroke-width="1.70146" stroke-linecap="round" stroke-linejoin="round"/>
</svg>
