<svg width="33" height="33" viewBox="0 0 33 33" fill="none" xmlns="http://www.w3.org/2000/svg">
<path d="M8.76465 24.716V23.6526C8.76465 22.6751 8.95719 21.7071 9.33128 20.804C9.70537 19.9008 10.2537 19.0802 10.9449 18.389C11.6361 17.6978 12.4567 17.1495 13.3599 16.7754C14.263 16.4013 15.231 16.2087 16.2085 16.2087C17.1861 16.2087 18.154 16.4013 19.0572 16.7754C19.9603 17.1495 20.7809 17.6978 21.4721 18.389C22.1634 19.0802 22.7117 19.9008 23.0858 20.804C23.4599 21.7071 23.6524 22.6751 23.6524 23.6526V24.716" stroke="#A0A3BD" stroke-width="1.70146" stroke-linecap="round" stroke-linejoin="round"/>
<path d="M16.2082 16.2087C17.3364 16.2087 18.4183 15.7606 19.216 14.9628C20.0137 14.1651 20.4619 13.0832 20.4619 11.9551C20.4619 10.8269 20.0137 9.74499 19.216 8.94728C18.4183 8.14957 17.3364 7.70142 16.2082 7.70142C15.0801 7.70142 13.9982 8.14957 13.2005 8.94728C12.4027 9.74499 11.9546 10.8269 11.9546 11.9551C11.9546 13.0832 12.4027 14.1651 13.2005 14.9628C13.9982 15.7606 15.0801 16.2087 16.2082 16.2087V16.2087Z" stroke="#A0A3BD" stroke-width="1.70146" stroke-linecap="round" stroke-linejoin="round"/>
</svg>
