<svg width="20" height="20" viewBox="0 0 20 20" fill="none" xmlns="http://www.w3.org/2000/svg">
<path d="M12.5 15.8333C13.5 12.7683 14.605 11.6625 17.5 10.8333C14.605 10.0041 13.5 8.89831 12.5 5.83331C11.5 8.89831 10.395 10.0041 7.49999 10.8333C10.395 11.6625 11.5 12.7683 12.5 15.8333ZM5.83333 8.33331C6.33333 6.79998 6.88583 6.24748 8.33333 5.83331C6.88583 5.41915 6.33333 4.86665 5.83333 3.33331C5.33333 4.86665 4.78083 5.41915 3.33333 5.83331C4.78083 6.24748 5.33333 6.79998 5.83333 8.33331ZM7.08333 16.6666C7.33333 15.9 7.60916 15.6241 8.33333 15.4166C7.60916 15.2091 7.33333 14.9333 7.08333 14.1666C6.83333 14.9333 6.55749 15.2091 5.83333 15.4166C6.55749 15.6241 6.83333 15.9 7.08333 16.6666Z" stroke="black" stroke-width="2" stroke-linejoin="round"/>
</svg>
