<svg width="16" height="16" viewBox="0 0 16 16" fill="none" xmlns="http://www.w3.org/2000/svg">
<path d="M4.85867 8.192C4.73067 8.31956 4.66667 8.47778 4.66667 8.66667V10.6667C4.66667 10.8556 4.73067 11.014 4.85867 11.142C4.98667 11.27 5.14489 11.3338 5.33333 11.3333C5.52178 11.3329 5.68022 11.2689 5.80867 11.1413C5.93711 11.0138 6.00089 10.8556 6 10.6667V8.66667C6 8.47778 5.936 8.31956 5.808 8.192C5.68 8.06444 5.52178 8.00044 5.33333 8C5.14489 7.99956 4.98667 8.06356 4.85867 8.192ZM10.192 4.85867C10.064 4.98622 10 5.14444 10 5.33333V10.6667C10 10.8556 10.064 11.014 10.192 11.142C10.32 11.27 10.4782 11.3338 10.6667 11.3333C10.8551 11.3329 11.0136 11.2689 11.142 11.1413C11.2704 11.0138 11.3342 10.8556 11.3333 10.6667V5.33333C11.3333 5.14444 11.2693 4.98622 11.1413 4.85867C11.0133 4.73111 10.8551 4.66711 10.6667 4.66667C10.4782 4.66622 10.32 4.73022 10.192 4.85867ZM7.52533 9.52533C7.39733 9.65289 7.33333 9.81111 7.33333 10V10.6667C7.33333 10.8556 7.39733 11.014 7.52533 11.142C7.65333 11.27 7.81156 11.3338 8 11.3333C8.18844 11.3329 8.34689 11.2689 8.47533 11.1413C8.60378 11.0138 8.66756 10.8556 8.66667 10.6667V10C8.66667 9.81111 8.60267 9.65289 8.47467 9.52533C8.34667 9.39778 8.18844 9.33378 8 9.33333C7.81156 9.33289 7.65333 9.39689 7.52533 9.52533ZM3.33333 14C2.96667 14 2.65289 13.8696 2.392 13.6087C2.13111 13.3478 2.00044 13.0338 2 12.6667V3.33333C2 2.96667 2.13067 2.65289 2.392 2.392C2.65333 2.13111 2.96711 2.00044 3.33333 2H12.6667C13.0333 2 13.3473 2.13067 13.6087 2.392C13.87 2.65333 14.0004 2.96711 14 3.33333V12.6667C14 13.0333 13.8696 13.3473 13.6087 13.6087C13.3478 13.87 13.0338 14.0004 12.6667 14H3.33333ZM3.33333 12.6667H12.6667V3.33333H3.33333V12.6667ZM8.47533 7.80867C8.60289 7.68067 8.66667 7.52222 8.66667 7.33333C8.66667 7.14444 8.60267 6.98622 8.47467 6.85867C8.34667 6.73111 8.18844 6.66711 8 6.66667C7.81156 6.66622 7.65333 6.73022 7.52533 6.85867C7.39733 6.98711 7.33333 7.14533 7.33333 7.33333C7.33333 7.52133 7.39733 7.67978 7.52533 7.80867C7.65333 7.93756 7.81156 8.00133 8 8C8.18844 7.99867 8.34689 7.93467 8.47533 7.808" fill="#757575"/>
</svg>
