<svg width="11" height="15" viewBox="0 0 11 15" fill="none" xmlns="http://www.w3.org/2000/svg">
<path fill-rule="evenodd" clip-rule="evenodd" d="M0 2C0 1.46957 0.210714 0.960859 0.585787 0.585786C0.960859 0.210714 1.46957 0 2 0H8.66667C9.1971 0 9.70581 0.210714 10.0809 0.585786C10.456 0.960859 10.6667 1.46957 10.6667 2V12.6667C10.6666 12.7922 10.6311 12.9152 10.5641 13.0215C10.4972 13.1277 10.4017 13.2129 10.2885 13.2673C10.1753 13.3216 10.049 13.3429 9.92429 13.3286C9.79954 13.3143 9.68135 13.2651 9.58333 13.1867L8.33333 12.1867L7.08333 13.1867C6.95527 13.2893 6.79387 13.341 6.63003 13.332C6.46619 13.3231 6.31142 13.254 6.19533 13.138L5.33333 12.276L4.47133 13.138C4.35534 13.2541 4.20061 13.3233 4.03676 13.3324C3.87292 13.3415 3.71147 13.2898 3.58333 13.1873L2.33333 12.1867L1.08333 13.1867C0.985315 13.2651 0.867126 13.3143 0.742373 13.3286C0.617621 13.3429 0.491378 13.3216 0.378179 13.2673C0.26498 13.2129 0.169427 13.1277 0.102522 13.0215C0.0356161 12.9152 7.84267e-05 12.7922 0 12.6667V2ZM2 1.33333C1.82319 1.33333 1.65362 1.40357 1.5286 1.5286C1.40357 1.65362 1.33333 1.82319 1.33333 2V11.28L1.91667 10.8133C2.03491 10.7187 2.18186 10.6671 2.33333 10.6671C2.4848 10.6671 2.63176 10.7187 2.75 10.8133L3.95 11.7733L4.862 10.862C4.98702 10.737 5.15656 10.6668 5.33333 10.6668C5.51011 10.6668 5.67965 10.737 5.80467 10.862L6.716 11.7733L7.91667 10.8133C8.03491 10.7187 8.18186 10.6671 8.33333 10.6671C8.4848 10.6671 8.63176 10.7187 8.75 10.8133L9.33333 11.28V2C9.33333 1.82319 9.2631 1.65362 9.13807 1.5286C9.01305 1.40357 8.84348 1.33333 8.66667 1.33333H2ZM2.66667 4.66667C2.66667 4.48986 2.7369 4.32029 2.86193 4.19526C2.98695 4.07024 3.15652 4 3.33333 4H7.33333C7.51014 4 7.67971 4.07024 7.80474 4.19526C7.92976 4.32029 8 4.48986 8 4.66667C8 4.84348 7.92976 5.01305 7.80474 5.13807C7.67971 5.26309 7.51014 5.33333 7.33333 5.33333H3.33333C3.15652 5.33333 2.98695 5.26309 2.86193 5.13807C2.7369 5.01305 2.66667 4.84348 2.66667 4.66667ZM3.33333 6.66667C3.15652 6.66667 2.98695 6.7369 2.86193 6.86193C2.7369 6.98695 2.66667 7.15652 2.66667 7.33333C2.66667 7.51014 2.7369 7.67971 2.86193 7.80474C2.98695 7.92976 3.15652 8 3.33333 8H5.33333C5.51014 8 5.67971 7.92976 5.80474 7.80474C5.92976 7.67971 6 7.51014 6 7.33333C6 7.15652 5.92976 6.98695 5.80474 6.86193C5.67971 6.7369 5.51014 6.66667 5.33333 6.66667H3.33333Z" fill="#757575"/>
</svg>
