<svg width="44" height="44" viewBox="0 0 44 44" fill="none" xmlns="http://www.w3.org/2000/svg">
<path d="M22 0C34.1503 0 44 9.84974 44 22C44 34.1503 34.1503 44 22 44C9.84974 44 0 34.1503 0 22C0 9.84974 9.84974 0 22 0ZM35.7676 12.2324C34.7913 11.2561 33.2087 11.2561 32.2324 12.2324L17.5 26.9648L11.7676 21.2324C10.7913 20.2561 9.20873 20.2561 8.23242 21.2324C7.25611 22.2087 7.25611 23.7913 8.23242 24.7676L15.7324 32.2676C16.7087 33.2439 18.2913 33.2439 19.2676 32.2676L35.7676 15.7676C36.7439 14.7913 36.7439 13.2087 35.7676 12.2324Z" fill="#3EC775"/>
</svg>
