<svg width="15" height="16" viewBox="0 0 15 16" fill="none" xmlns="http://www.w3.org/2000/svg">
<path d="M4.25206 6.78933C4.1053 6.44535 3.8831 6.13876 3.60188 5.89222C3.32067 5.64568 2.98763 5.4655 2.6274 5.36501C2.26717 5.26452 1.88896 5.24629 1.52074 5.31166C1.15251 5.37703 0.80369 5.52433 0.500061 5.74267M10.0681 6.78933C10.2148 6.44535 10.437 6.13876 10.7182 5.89222C10.9995 5.64568 11.3325 5.4655 11.6927 5.36501C12.0529 5.26452 12.4312 5.24629 12.7994 5.31166C13.1676 5.37703 13.5164 5.52433 13.8201 5.74267M0.500061 3.40133C0.500061 3.78749 0.653461 4.15783 0.926514 4.43088C1.19957 4.70393 1.56991 4.85733 1.95606 4.85733C2.34222 4.85733 2.71256 4.70393 2.98561 4.43088C3.25866 4.15783 3.41206 3.78749 3.41206 3.40133C3.41206 3.01518 3.25866 2.64484 2.98561 2.37179C2.71256 2.09873 2.34222 1.94533 1.95606 1.94533C1.56991 1.94533 1.19957 2.09873 0.926514 2.37179C0.653461 2.64484 0.500061 3.01518 0.500061 3.40133ZM10.9081 3.40133C10.9081 3.78749 11.0615 4.15783 11.3345 4.43088C11.6076 4.70393 11.9779 4.85733 12.3641 4.85733C12.7502 4.85733 13.1206 4.70393 13.3936 4.43088C13.6667 4.15783 13.8201 3.78749 13.8201 3.40133C13.8201 3.01518 13.6667 2.64484 13.3936 2.37179C13.1206 2.09873 12.7502 1.94533 12.3641 1.94533C11.9779 1.94533 11.6076 2.09873 11.3345 2.37179C11.0615 2.64484 10.9081 3.01518 10.9081 3.40133ZM4.93539 2.72467C4.93539 3.01681 4.99294 3.3061 5.10474 3.57601C5.21654 3.84592 5.3804 4.09116 5.58698 4.29774C5.79356 4.50432 6.03881 4.66819 6.30872 4.77999C6.57863 4.89179 6.86791 4.94933 7.16006 4.94933C7.45221 4.94933 7.7415 4.89179 8.0114 4.77999C8.28131 4.66819 8.52656 4.50432 8.73314 4.29774C8.93972 4.09116 9.10359 3.84592 9.21539 3.57601C9.32719 3.3061 9.38473 3.01681 9.38473 2.72467C9.38473 2.13465 9.15034 1.5688 8.73314 1.15159C8.31593 0.734384 7.75008 0.5 7.16006 0.5C6.57004 0.5 6.00419 0.734384 5.58698 1.15159C5.16978 1.5688 4.93539 2.13465 4.93539 2.72467Z" stroke="#757575" stroke-linecap="round" stroke-linejoin="round"/>
<path d="M11.0087 7.64C10.521 7.1042 9.92668 6.67616 9.26395 6.38327C8.60122 6.09038 7.88464 5.93909 7.16007 5.93909C6.4355 5.93909 5.71891 6.09038 5.05618 6.38327C4.39345 6.67616 3.79918 7.1042 3.3114 7.64M9.79673 9.23733C9.78573 9.92944 9.50306 10.5895 9.00973 11.075C8.51639 11.5606 7.85194 11.8327 7.15973 11.8327C6.46753 11.8327 5.80308 11.5606 5.30974 11.075C4.81641 10.5895 4.53374 9.92944 4.52273 9.23733" stroke="#757575" stroke-linecap="round" stroke-linejoin="round"/>
<path d="M13.4227 9.23468V10.226L12.2894 10.4527C12.159 11.0023 11.9399 11.5269 11.6407 12.006L12.2867 12.9687L10.8867 14.3687L9.92474 13.7227C9.44507 14.0235 8.91948 14.244 8.36874 14.3753L8.14474 15.5027H6.17141L5.94674 14.3753C5.39623 14.2439 4.87088 14.0234 4.39141 13.7227L3.42674 14.366L2.02674 12.966L2.67274 12.0033C2.37336 11.5243 2.15404 10.9996 2.02341 10.45L0.890076 10.2233V9.23468" stroke="#757575" stroke-linecap="round" stroke-linejoin="round"/>
</svg>
