<svg width="44" height="44" viewBox="0 0 44 44" fill="none" xmlns="http://www.w3.org/2000/svg">
<path d="M22 0C34.1503 0 44 9.84974 44 22C44 34.1503 34.1503 44 22 44C9.84974 44 0 34.1503 0 22C0 9.84974 9.84974 0 22 0ZM32.7676 11.2324C31.7913 10.2561 30.2087 10.2561 29.2324 11.2324L22 18.4648L14.7676 11.2324C13.7913 10.2561 12.2087 10.2561 11.2324 11.2324C10.2561 12.2087 10.2561 13.7913 11.2324 14.7676L18.4648 22L11.2324 29.2324C10.2561 30.2087 10.2561 31.7913 11.2324 32.7676C12.2087 33.7439 13.7913 33.7439 14.7676 32.7676L22 25.5352L29.2324 32.7676C30.2087 33.7439 31.7913 33.7439 32.7676 32.7676C33.7439 31.7913 33.7439 30.2087 32.7676 29.2324L25.5352 22L32.7676 14.7676C33.7439 13.7913 33.7439 12.2087 32.7676 11.2324Z" fill="#EB5353"/>
</svg>
