<svg width="14" height="13" viewBox="0 0 14 13" fill="none" xmlns="http://www.w3.org/2000/svg">
<path d="M8.5 0C8.10218 0 7.72064 0.158035 7.43934 0.43934C7.15804 0.720644 7 1.10218 7 1.5V3.5C7.00004 3.81016 7.09623 4.11267 7.27532 4.3659C7.4544 4.61913 7.70758 4.81062 8 4.914V6C8.00004 6.09501 8.02714 6.18804 8.07814 6.2682C8.12913 6.34836 8.20191 6.41233 8.28795 6.45262C8.37399 6.49291 8.46973 6.50786 8.56396 6.49571C8.65819 6.48355 8.747 6.4448 8.82 6.384L10.48 5H12.5C12.8978 5 13.2794 4.84196 13.5607 4.56066C13.842 4.27936 14 3.89782 14 3.5V1.5C14 1.10218 13.842 0.720644 13.5607 0.43934C13.2794 0.158035 12.8978 0 12.5 0H8.5ZM8 1.5C8 1.36739 8.05268 1.24021 8.14645 1.14645C8.24021 1.05268 8.36739 1 8.5 1H12.5C12.6326 1 12.7598 1.05268 12.8536 1.14645C12.9473 1.24021 13 1.36739 13 1.5V3.5C13 3.63261 12.9473 3.75979 12.8536 3.85355C12.7598 3.94732 12.6326 4 12.5 4H10.3C10.1831 4.00005 10.0698 4.0411 9.98 4.116L9 4.932V4.5C9 4.36739 8.94732 4.24021 8.85355 4.14645C8.75979 4.05268 8.63261 4 8.5 4C8.36739 4 8.24021 3.94732 8.14645 3.85355C8.05268 3.75979 8 3.63261 8 3.5V1.5ZM2 5C2 4.46957 2.21071 3.96086 2.58579 3.58579C2.96086 3.21071 3.46957 3 4 3C4.53043 3 5.03914 3.21071 5.41421 3.58579C5.78929 3.96086 6 4.46957 6 5C6 5.53043 5.78929 6.03914 5.41421 6.41421C5.03914 6.78929 4.53043 7 4 7C3.46957 7 2.96086 6.78929 2.58579 6.41421C2.21071 6.03914 2 5.53043 2 5ZM4 4C3.73478 4 3.48043 4.10536 3.29289 4.29289C3.10536 4.48043 3 4.73478 3 5C3 5.26522 3.10536 5.51957 3.29289 5.70711C3.48043 5.89464 3.73478 6 4 6C4.26522 6 4.51957 5.89464 4.70711 5.70711C4.89464 5.51957 5 5.26522 5 5C5 4.73478 4.89464 4.48043 4.70711 4.29289C4.51957 4.10536 4.26522 4 4 4ZM1.5 8H6.5C6.89782 8 7.27936 8.15804 7.56066 8.43934C7.84196 8.72064 8 9.10218 8 9.5C8 10.616 7.541 11.51 6.788 12.115C6.047 12.71 5.053 13 4 13C2.947 13 1.953 12.71 1.212 12.115C0.46 11.51 0 10.616 0 9.5C0 9.10218 0.158035 8.72064 0.43934 8.43934C0.720644 8.15804 1.10218 8 1.5 8ZM6.5 9H1.5C1.36739 9 1.24021 9.05268 1.14645 9.14645C1.05268 9.24021 1 9.36739 1 9.5C1 10.317 1.325 10.923 1.838 11.335C2.364 11.757 3.12 12 4 12C4.88 12 5.636 11.757 6.162 11.335C6.675 10.923 7 10.317 7 9.5C7 9.36739 6.94732 9.24021 6.85355 9.14645C6.75979 9.05268 6.63261 9 6.5 9Z" fill="#757575"/>
</svg>
