<svg width="16" height="16" viewBox="0 0 16 16" fill="none" xmlns="http://www.w3.org/2000/svg">
<path d="M4 3V3.5H3.5C2.9485 3.5 2.5 3.9485 2.5 4.5C2.5 5.0515 2.9485 5.5 3.5 5.5H5.5V6.5H3.5C2.3975 6.5 1.5 5.603 1.5 4.5C1.50103 4.04945 1.65415 3.61244 1.93457 3.25979C2.21499 2.90714 2.60626 2.6595 3.045 2.557C3.255 1.39 4.2735 0.5 5.5 0.5C6.7265 0.5 7.745 1.39 7.955 2.557C8.39374 2.6595 8.78501 2.90714 9.06543 3.25979C9.34585 3.61244 9.49897 4.04945 9.5 4.5V4.5035H8.5V4.5C8.5 3.9485 8.0515 3.5 7.5 3.5H7V3C7 2.173 6.327 1.5 5.5 1.5C4.673 1.5 4 2.173 4 3ZM7.5 12.592V11H8.5V12.592C9.081 12.799 9.5 13.349 9.5 14C9.5 14.827 8.827 15.5 8 15.5C7.173 15.5 6.5 14.827 6.5 14C6.5 13.349 6.9195 12.799 7.5 12.592ZM7.5 14C7.5 14.1326 7.55268 14.2598 7.64645 14.3536C7.74021 14.4473 7.86739 14.5 8 14.5C8.13261 14.5 8.25979 14.4473 8.35355 14.3536C8.44732 14.2598 8.5 14.1326 8.5 14C8.5 13.8674 8.44732 13.7402 8.35355 13.6464C8.25979 13.5527 8.13261 13.5 8 13.5C7.86739 13.5 7.74021 13.5527 7.64645 13.6464C7.55268 13.7402 7.5 13.8674 7.5 14ZM14.5 11C14.5 11.827 13.827 12.5 13 12.5C12.7778 12.4997 12.5584 12.4501 12.3577 12.3548C12.157 12.2595 11.9799 12.1208 11.8393 11.9487C11.6986 11.7767 11.5979 11.5756 11.5445 11.3599C11.491 11.1442 11.486 10.9193 11.53 10.7015L10.238 9.926L10.738 9.0595L12.0515 9.8475C12.3173 9.62439 12.6529 9.50144 13 9.5C13.827 9.5 14.5 10.173 14.5 11ZM13.5 11C13.5 10.8674 13.4473 10.7402 13.3536 10.6464C13.2598 10.5527 13.1326 10.5 13 10.5C12.8674 10.5 12.7402 10.5527 12.6464 10.6464C12.5527 10.7402 12.5 10.8674 12.5 11C12.5 11.1326 12.5527 11.2598 12.6464 11.3536C12.7402 11.4473 12.8674 11.5 13 11.5C13.1326 11.5 13.2598 11.4473 13.3536 11.3536C13.4473 11.2598 13.5 11.1326 13.5 11ZM14.5 5C14.5 5.827 13.827 6.5 13 6.5C12.6529 6.49856 12.3173 6.37561 12.0515 6.1525L10.762 6.926L10.262 6.0595L11.53 5.299C11.486 5.08114 11.4908 4.85622 11.5443 4.64048C11.5977 4.42473 11.6984 4.22354 11.839 4.05143C11.9797 3.87932 12.1568 3.74058 12.3575 3.64521C12.5583 3.54985 12.7777 3.50026 13 3.5C13.3977 3.5 13.7792 3.65797 14.0605 3.93916C14.3418 4.22036 14.4999 4.60176 14.5 4.9995M13.5 4.9995C13.5 4.86689 13.4473 4.73971 13.3536 4.64595C13.2598 4.55218 13.1326 4.4995 13 4.4995C12.8674 4.4995 12.7402 4.55218 12.6464 4.64595C12.5527 4.73971 12.5 4.86689 12.5 4.9995C12.5 5.13211 12.5527 5.25929 12.6464 5.35305C12.7402 5.44682 12.8674 5.4995 13 5.4995C13.1326 5.4995 13.2598 5.44682 13.3536 5.35305C13.4473 5.25929 13.5 5.13211 13.5 4.9995ZM4.47 10.7015C4.49 10.7982 4.5 10.8977 4.5 11C4.5 11.827 3.827 12.5 3 12.5C2.173 12.5 1.5 11.827 1.5 11C1.5 10.173 2.173 9.5 3 9.5C3.34706 9.50144 3.68265 9.62439 3.9485 9.8475L5.232 9.0775L5.732 9.944L4.47 10.7015ZM3.5 11C3.5 10.8674 3.44732 10.7402 3.35355 10.6464C3.25979 10.5527 3.13261 10.5 3 10.5C2.86739 10.5 2.74021 10.5527 2.64645 10.6464C2.55268 10.7402 2.5 10.8674 2.5 11C2.5 11.1326 2.55268 11.2598 2.64645 11.3536C2.74021 11.4473 2.86739 11.5 3 11.5C3.13261 11.5 3.25979 11.4473 3.35355 11.3536C3.44732 11.2598 3.5 11.1326 3.5 11ZM10 8C10 6.897 9.103 6 8 6C6.897 6 6 6.897 6 8C6 9.103 6.897 10 8 10C9.103 10 10 9.103 10 8ZM9 8C9 8.5515 8.5515 9 8 9C7.4485 9 7 8.5515 7 8C7 7.4485 7.449 7 8 7C8.551 7 9 7.4485 9 8Z" fill="#757575"/>
</svg>
